<svg width="113" height="229" fill="none" xmlns="http://www.w3.org/2000/svg"><path d="M.6 229v-21.3l57.7-89.9 11.8-18.7a86.7 86.7 0 009-18.2 64 64 0 003.6-22.4c0-10.5-1.7-18.7-5-24.7-3.4-6-9.3-9-17.7-9-7.1 0-12.6 2-16.5 6-4 3.9-6.7 9-8.2 15.4a89 89 0 00-2.2 20.4v7.6h-30v-7.9c0-13.6 1.8-25.3 5.4-35A46.7 46.7 0 0126 8.3c8.2-5.4 19-8 32.5-8 18.3 0 31.9 5.2 40.9 15.6 9 10.3 13.4 24.6 13.4 42.9 0 9.7-1.2 18.2-3.6 25.4-2.3 7.3-5.3 14.1-9 20.5-3.7 6.3-7.8 12.9-12.3 19.6l-52.1 79.5h71.7V229H.6z" fill="#F2F2F2"/></svg>