<svg width="112" height="232" fill="none" xmlns="http://www.w3.org/2000/svg"><path d="M56 231.5c-18.2 0-32-5-41.5-15.1C5 206.1.5 191.8.5 173.3v-7.6h29.7v5a57.9 57.9 0 005.8 26.7c3.8 6.1 10.4 9.2 20 9.2 10 0 16.8-3.5 20.4-10.4 3.7-7 5.6-17.5 5.6-31.3 0-12.7-2.4-22.6-7-29.7-4.7-7.3-12.3-11.3-22.7-12-.8-.2-2.2-.3-4.2-.3v-30H52c10.6-.4 18.3-3.2 23-8.4 4.6-5.2 7-13.9 7-26 0-11.2-2-19.6-5.6-25.2-3.8-5.8-10.5-8.7-20.2-8.7s-16.4 3-20.2 9.2A59.3 59.3 0 0030.2 61v4.8H.5v-7.6c0-18.5 4.6-32.8 14-42.8C24 5.3 37.9.2 56.2.2c18.3 0 32.1 5.2 41.4 15.4C107.2 25.7 112 40 112 58.5a56 56 0 01-8.7 32.5 42.7 42.7 0 01-23.8 17 40.6 40.6 0 0123.8 19.4 72.5 72.5 0 018.7 37.5c0 21-4.6 37.5-13.7 49.3-9 11.5-23 17.3-42.3 17.3z" fill="#F2F2F2"/></svg>