<svg width="23" height="23" fill="none" xmlns="http://www.w3.org/2000/svg"><path d="M11.48.09c1.91 0 3.48.02 4.7.07 1.03.04 1.95.22 2.75.54a5.73 5.73 0 013.33 3.32c.31.8.5 1.73.54 2.76.04 1.22.07 2.78.07 4.7 0 1.91-.03 3.48-.07 4.7a8.63 8.63 0 01-.54 2.75 5.73 5.73 0 01-3.33 3.33c-.8.31-1.72.5-2.76.54-1.21.04-2.78.07-4.7.07-1.9 0-3.47-.03-4.69-.07a8.63 8.63 0 01-2.76-.54A5.73 5.73 0 01.7 18.93c-.32-.8-.5-1.72-.54-2.76-.05-1.21-.07-2.78-.07-4.7 0-1.9.02-3.47.07-4.69C.2 5.75.38 4.83.7 4.02A5.73 5.73 0 014.02.7C4.82.38 5.75.2 6.78.16 8 .1 9.56.09 11.48.09zm0 1.48c-2 0-3.62.02-4.88.07-.8.03-1.55.17-2.24.43a4.1 4.1 0 00-2.3 2.29c-.25.69-.39 1.43-.42 2.24-.05 1.26-.07 2.89-.07 4.88 0 1.99.02 3.61.07 4.87.03.81.17 1.56.43 2.25a4.1 4.1 0 002.29 2.29c.69.25 1.43.4 2.24.43 1.26.04 2.89.06 4.88.06 1.99 0 3.61-.02 4.87-.06.81-.03 1.56-.18 2.25-.43a4.1 4.1 0 002.29-2.3c.25-.68.4-1.43.43-2.24.04-1.26.06-2.88.06-4.87 0-2-.02-3.62-.06-4.88a7.21 7.21 0 00-.43-2.24 4.1 4.1 0 00-2.3-2.3 7.21 7.21 0 00-2.24-.42c-1.26-.05-2.88-.07-4.87-.07zm0 14.47a4.4 4.4 0 003.22-1.34 4.4 4.4 0 001.34-3.22 4.4 4.4 0 00-1.34-3.23 4.4 4.4 0 00-3.22-1.33 4.4 4.4 0 00-3.23 1.33 4.4 4.4 0 00-1.33 3.23 4.4 4.4 0 001.33 3.22 4.4 4.4 0 003.23 1.34zm0-10.4c1.61 0 3 .57 4.13 1.7a5.63 5.63 0 011.7 4.14c0 1.61-.56 3-1.7 4.13a5.63 5.63 0 01-4.13 1.7c-1.62 0-3-.56-4.14-1.7a5.63 5.63 0 01-1.7-4.13c0-1.62.57-3 1.7-4.14a5.63 5.63 0 014.14-1.7zm7.45-.23a1.36 1.36 0 01-1.4 1.35c-.36 0-.68-.13-.94-.4a1.3 1.3 0 01-.4-.95 1.36 1.36 0 011.35-1.39c.38 0 .7.14.98.42.28.27.41.6.41.97z" fill="#666"/></svg>