<svg width="20" height="20" fill="none" xmlns="http://www.w3.org/2000/svg"><g clip-path="url(#clip0)" fill="#000"><path d="M17.9 9.4H9.4v1.2h8.5l-2.1 2.1.9.9 3.1-3.1a.7.7 0 000-.9l-3.1-3.1-.9.9 2.1 2zM8.1 19.4v-6.2a.6.6 0 00-.6-.6H3.1a1.2 1.2 0 001.2 1.2h2.5v5H3.1a1.8 1.8 0 01-1.9-1.7v-14a1.8 1.8 0 011.7-1.8h3.9v5H4.4a1.2 1.2 0 00-1.2 1.2h4.4a.6.6 0 00.6-.6V.6a.9.9 0 00-.7-.6H3.1A3 3 0 000 2.9v13.9a2.9 2.9 0 002.9 3.1h4.6a.5.5 0 00.6-.5z"/></g><defs><clipPath id="clip0"><path fill="#fff" d="M0 0h20v20H0z"/></clipPath></defs></svg>