<svg width="30" height="22" fill="none" xmlns="http://www.w3.org/2000/svg"><path d="M.1 5.49c0-.86.54-1.32 1.65-1.38L6 4.13c.29 0 .48.13.57.38.44 1.26.93 2.34 1.47 3.26.54.9 1.25 1.96 2.13 3.15.07.15.2.23.37.23.13 0 .24-.06.31-.18l.09-.27.03-4.36c0-.3-.08-.5-.25-.6-.16-.1-.46-.17-.9-.22-.34-.06-.5-.24-.5-.56 0-.07 0-.12.02-.15.4-1.09 1.54-1.63 3.43-1.63l1.6-.03c.72 0 1.32.16 1.8.48.47.32.7.82.7 1.5v5.72a.7.7 0 00.38.12c.28 0 .53-.15.74-.45 2.1-2.58 3.23-4.3 3.4-5.18l.05-.13c.14-.25.36-.47.66-.65.3-.19.57-.31.8-.38a.63.63 0 01.26-.05h4.42l.29.03a1 1 0 01.88.47c.08.1.13.21.16.33a2.26 2.26 0 01.07.56v.17a5.9 5.9 0 01-1.01 2.2c-.55.78-1.24 1.62-2.07 2.53-.84.9-1.36 1.5-1.57 1.78-.17.2-.26.39-.26.56 0 .13.08.28.23.45l4.17 4.63c.22.27.34.56.34.88 0 .38-.17.7-.51.95-.35.25-.76.4-1.23.43l-.49.03h-4.34a1 1 0 00-.11 0l-.11.02c-.42 0-.81-.16-1.18-.48a245.7 245.7 0 01-2.68-2.96c-.1-.12-.23-.23-.4-.33l-.3 1.16-.27 1.08-.09.42c-.19.6-.58.94-1.2 1.06l-.4.03h-2.8c-1.57 0-3.15-.64-4.72-1.92a19.62 19.62 0 01-4.23-4.94A46.13 46.13 0 01.23 6.22a1.8 1.8 0 01-.14-.73zM17.24 12c-.4 0-.76-.1-1.09-.29-.32-.19-.48-.45-.48-.79V5.14c0-.34-.1-.58-.29-.72-.19-.14-.52-.21-1-.21l-1.62.05c-.82 0-1.44.12-1.86.37.84.36 1.26.93 1.26 1.71v4.43c-.04.42-.23.77-.57 1.04-.35.28-.73.42-1.15.42-.57 0-1-.24-1.3-.73a25.68 25.68 0 01-3.32-5.63l-.26-.66-3.8-.02c-.24 0-.38.01-.4.04-.04.02-.05.1-.05.21 0 .15.02.31.06.48l.6 1.4c1.6 3.64 3.33 6.51 5.2 8.6 1.88 2.1 3.72 3.15 5.53 3.15h2.85c.12 0 .2-.03.26-.09s.1-.17.14-.34l.06-.25.54-2.21c.15-.3.29-.5.4-.6.21-.19.46-.28.74-.28.46 0 .93.24 1.4.73l2.43 2.71c.15.22.31.33.48.33h4.72c.57 0 .85-.13.85-.38a.44.44 0 00-.08-.25l-4.14-4.55a1.65 1.65 0 01-.49-1.13c0-.4.15-.79.46-1.16.25-.33.73-.9 1.44-1.67.71-.78 1.34-1.51 1.87-2.19.53-.68.88-1.3 1.06-1.85l.08-.32a.35.35 0 01-.03-.17c0-.07 0-.14-.03-.19h-4.48c-.28.1-.51.25-.68.46l-.17.47c-.48 1.16-1.73 2.95-3.74 5.36-.4.34-.87.5-1.4.5z" fill="#666"/></svg>