<svg style="display: none" xmlns="http://www.w3.org/2000/svg" xmlns:xlink="http://www.w3.org/1999/xlink">
    <symbol id="cat-slim" viewBox="0 0 36 50">
      <path d="M28.2 0H28c-.32.19-.59.47-.74.82a8.03 8.03 0 00-.67 1.76.84.84 0 01-.76.69 3.77 3.77 0 00-2.69 1.95c-.37.66-.69 1.35-.95 2.06-.73 1.9-1.29 3.85-1.98 5.77-.32.87-.34.87-1.32.87-1.16 0-1.08-.18-1.1 1.1 0 .41.13.62.56.6.13 0 .33-.07.39.1.05.18-.13.26-.23.36a4.63 4.63 0 01-2.23 1.26c-.97.26-1.97.47-2.92.79-2.45.82-4.7 1.96-6.46 3.9a14.44 14.44 0 00-2.44 4.04c-1.89 4.46-2.8 9.15-3.51 13.88a97.06 97.06 0 00-.75 6.7C.1 47.75 0 48.88 0 50h17.14c.03-.23-.01-.46-.12-.66a2.58 2.58 0 00-1.97-1.58c-.36-.08-.4-.2-.18-.48.36-.48.64-1.02.82-1.6.84-2.47 1.16-5.06 1.57-7.62.23-1.96.83-3.85 1.77-5.59a11.13 11.13 0 012.87-3.28c.43-.32.45-.32.52.23.05.36.06.74.09 1.11.15 2.44.12 4.88-.1 7.31-.2 1.88-.22 3.78-.07 5.67.2 2.2.59 4.36 1.16 6.49h6.84a2.8 2.8 0 00-2.18-2.29c-.64-.1-1.3-.07-1.93.1-.31.08-.44 0-.46-.33-.22-2.73-.04-5.47.51-8.16a91.8 91.8 0 001.57-9.37c.14-1.27.54-2.5 1.18-3.6.6-1.1 1.14-2.23 1.74-3.33a3.03 3.03 0 00.22-2.67c-.14-.37-.27-.74-.44-1.1-.52-1-1.03-2-1.5-3-.26-.52-.2-.59.36-.6.84 0 .84 0 .86-.85v-.34c0-.35-.14-.55-.52-.51h-.78c-.36 0-.46-.15-.37-.52a3.22 3.22 0 012.64-2.28 11.3 11.3 0 013.4.22.51.51 0 00.65-.33 40 40 0 01.66-1.55.52.52 0 00-.05-.58c-1.65-2.1-3.43-4.05-5.87-5.3a.77.77 0 01-.45-.58c-.14-.74-.35-1.46-.65-2.14A1.8 1.8 0 0028.2 0z" fill="#000"/>
    </symbol>

    <symbol id="cat-pro" viewBox="0 0 67 28">
      <path d="M61.55 2.9A7.6 7.6 0 0163.8.6c.5-.35.8-.35 1.1.3.4.95.75 1.95.45 3a1.15 1.15 0 00.2 1.05c.3.4.55.8.8 1.15a3.14 3.14 0 01.45 3.1c-.18.5-.22 1.03-.1 1.55.1.5.1 1 0 1.5a1.88 1.88 0 01-1.35 1.6 2.6 2.6 0 00-1.6 1 .53.53 0 01-.45.25c-.6.1-2.1-1.25-2.1-1.85v-.3c.05-1.8-.05-1.95-1.7-2.7a2.2 2.2 0 01-.9-.6c-.3-.4-.7-.35-1.15-.2-.45.15-.7.45-.65.95.15 1.21.2 2.43.15 3.65 0 .14.04.28.1.4 1.55 2.25 2.15 4.9 2.9 7.45.6 1.95 1.7 3 3.7 3.15.32.03.64.08.95.15a2.08 2.08 0 011.7 1.6c.35 1.05.15 1.3-.9 1.3h-3.25c-.42.02-.83-.12-1.15-.4a5.86 5.86 0 00-1.7-1 3.63 3.63 0 01-1.7-1.3 14.3 14.3 0 00-2-2.25c-1.4-1.45-2.9-2.85-4.2-4.35a5.69 5.69 0 01-1.6-3.8c0-.45-.1-.65-.6-.45a.96.96 0 01-.5.15c-1.4 0-2.1.85-2.6 2.1-.45 1.05-1.05 2.05-1.6 3.1A5.2 5.2 0 0044 22c0 1.2.3 1.6 1.4 2 .7.25 1.35.5 1.7 1.2.4.8.3 1-.55 1.05h-3.4a.94.94 0 01-.95-.55l-.9-1.5a3.02 3.02 0 01-.35-2.7c.22-.87.23-1.77.05-2.65a4.2 4.2 0 01.85-3.5c.3-.35.3-.5-.2-.6a25.03 25.03 0 01-5.95-2.1c-1.6-.6-1.9-.5-2.35 1.15-.4 1.4-.8 2.8-1.1 4.25-.35 1.6.05 3.1.55 4.6.2.6.8.55 1.25.7 1 .3 1.85.7 2.25 1.75.35.8.3.9-.55.9-.85 0-1.7-.05-2.6 0-.76.01-1.5-.23-2.1-.7-2.4-1.6-3.1-4.05-3.3-6.7-.1-1.65-1-2.95-2.05-4.2-.2-.25-.4-.35-.7-.15-1.07.6-2.2 1.1-3.35 1.5a13.35 13.35 0 00-6.1 4.4 5.31 5.31 0 00-1.1 2.55c-.15.9.1 1.3 1 1.55s1.35.75 1.45 1.7c.05.4-.1.6-.5.6h-4.05a.83.83 0 01-.65-.4 4.28 4.28 0 01-.95-2.75 25.3 25.3 0 01.45-5.15 3.15 3.15 0 011.7-2.4c2.95-1.4 4.5-4.05 5.9-6.8.3-.55.05-.65-.45-.6-1.4.2-2.73.75-3.85 1.6a35.3 35.3 0 00-4.15 3.55 8.34 8.34 0 01-5.15 2.45c-3.65.2-5.35-1.85-5.2-5.15.03-1.13.46-2.2 1.2-3.05a2.12 2.12 0 012.25-.75c.75.2.95.6.65 1.35-.15.3-.35.55-.5.85-.22.3-.38.64-.5 1-.55 1.5.2 2.55 1.75 2.7 1.65.15 3-.55 4.25-1.55 1.5-1.2 2.85-2.6 4-4.15a10.4 10.4 0 017.2-4.05c1.15-.15 2.15-.65 3.25-.95 2.06-.63 4.2-.93 6.35-.9a6.5 6.5 0 002.9-.55c2.45-1 5-1 7.55-.5 2 .4 4 .9 5.95 1.4 1.16.22 2.35.18 3.5-.1 2.2-.56 4.44-.9 6.7-1a9.08 9.08 0 014.3.85c1 .45 1 .45.75 1.4z" fill="#000"/>
    </symbol>

    <symbol id="icon-leaf" viewBox="0 0 30 32">
      <path d="M27.84 2.77a.95.95 0 00-.9-.77h-.01c-4.94.03-16.95.92-21.8 8.38-2.51 3.88-2.73 8.91-.64 14.96l.07.13a25.93 25.93 0 00-1.04 3.32c-.11.54.21 1.07.72 1.19l.2.02c.43 0 .81-.32.9-.79.03-.1 2.42-10.37 10.86-16.38.43-.3.55-.93.26-1.38a.9.9 0 00-1.3-.28c-4.79 3.4-7.74 8-9.47 11.65-1.24-4.57-.92-8.37.99-11.3 3.74-5.76 12.62-7.15 17.98-7.45-1.16 1.8-2.41 5.1-2.41 10.93 0 3.12-.83 5.52-2.47 7.14-2.62 2.6-6.88 2.83-10 2.58-.51-.04-.96.38-1 .93-.04.55.35 1.03.86 1.07.63.05 1.3.08 1.98.08 3.18 0 6.87-.66 9.43-3.2 2.04-2 3.07-4.9 3.07-8.6 0-9.1 3.22-11.1 3.23-11.1.4-.21.6-.68.5-1.13z" fill="#fff"/>
    </symbol>

    <svg id="icon-tube" viewBox="0 0 29 31">
      <g fill="#fff">
        <path d="M20.78 18.47c-1.71 0-3.1 1.48-3.1 3.3 0 1.83 1.4 3.3 3.1 3.3 1.7 0 3.08-1.47 3.08-3.3 0-1.82-1.38-3.3-3.08-3.3zm0 5.02c-.89 0-1.6-.77-1.6-1.71 0-.95.71-1.72 1.6-1.72.88 0 1.6.77 1.6 1.72 0 .94-.72 1.7-1.6 1.7zM11.6-.01c-1.75 0-3.18 1.52-3.18 3.4 0 1.89 1.43 3.41 3.19 3.41s3.18-1.52 3.18-3.4c0-1.89-1.42-3.41-3.18-3.41zm0 5.48c-1.06 0-1.93-.93-1.93-2.07 0-1.15.87-2.07 1.94-2.07 1.07 0 1.93.92 1.93 2.07 0 1.14-.86 2.07-1.93 2.07zM8.23 17.61c-1.3 0-2.34 1.12-2.34 2.5 0 1.39 1.04 2.5 2.34 2.5 1.3 0 2.34-1.11 2.34-2.5 0-1.38-1.05-2.5-2.34-2.5zM8 19.5c-.46 0 1.16 1.1 1.16.61 0-.49-1.62.39-1.16.39.46 0 1.06-.88 1.06-.39 0 .5-.6-.61-1.06-.61zM18.5 9.76s3.04-.84 6.18 1.5c.9.76 1.76 1.33 1.15 2.12-.34.34-.64.66-1.72-.53a6.92 6.92 0 00-5.61-1.44c-1.13.24-1.96.55-3.56 2.15a8.27 8.27 0 01-6.5 2.5c-2.52-.24-3.84-1.27-5.24-2.55-.3-.42-.3-.87-.12-1.13.17-.26.83-.52 1.2-.13.37.4 2.1 1.97 3.82 2.07 1.72.1 3.44.21 5.74-1.96 2.3-2.18 3.46-2.34 4.66-2.6z"/>
        <path d="M28.65 26.82V8.16c0-.58-.38-.65-.53-.66h-.5c-.5 0-.54.56-.54.74V26.84a2.68 2.68 0 01-.82 1.89c-.81.7-1.62.6-1.62.6s-20.18 0-20.66-.03a2.3 2.3 0 01-1.6-1c-.57-.8-.46-1.85-.46-1.85V8.3c0-.83-.67-.8-.67-.8h-.3c-.54 0-.6.58-.6.77v18.54c0 1.33.46 2.4 1.55 3.33 1.1.94 2.38.86 2.38.86h20.58c.86 0 1.98-.42 2.91-1.56.93-1.14.88-2.63.88-2.63z"/>
      </g>
    </svg>

    <symbol id="icon-eat" viewBox="0 0 25 30">
      <path fill-rule="evenodd" clip-rule="evenodd" d="M18.62.08a1 1 0 011.09.21c.9.91 2.1 2.88 3.06 5.92A42.6 42.6 0 0124.5 19a1 1 0 01-1 1H20v9a1 1 0 11-2 0V1a1 1 0 01.62-.92zM20 18h2.5a39.62 39.62 0 00-1.64-11.19 22.4 22.4 0 00-.86-2.3V18zM6 0a1 1 0 011 1v28a1 1 0 11-2 0V1a1 1 0 011-1z" fill="#fff"/>
      <path fill-rule="evenodd" clip-rule="evenodd" d="M1.5 0a1 1 0 011 1v5.5c0 .56.2 1.32.7 1.92.48.56 1.31 1.08 2.8 1.08a1 1 0 110 2 5.41 5.41 0 01-4.33-1.8A5.07 5.07 0 01.5 6.5V1a1 1 0 011-1z" fill="#fff"/>
      <path fill-rule="evenodd" clip-rule="evenodd" d="M10.5 0a1 1 0 00-1 1v5.5c0 .56-.2 1.32-.7 1.92C8.32 8.98 7.49 9.5 6 9.5a1 1 0 000 2c2.01 0 3.43-.73 4.33-1.8a5.07 5.07 0 001.17-3.2V1a1 1 0 00-1-1z" fill="#fff"/>
    </symbol>

    <symbol id="icon-alarm" viewBox="0 0 32 33">
      <path stroke="#fff" stroke-width="1.6" d="M8 2h16"/>
      <line x1="50%" y1="1.5" x2="50%" y2="5" stroke="#fff"/>
      <circle r="12" cx="50%" cy="17" fill="none" stroke="#fff" stroke-width="1.6"/>
      <circle r="1.1" fill="#fff" cy="11" cx="21.2"/>
      <circle r="1.1" fill="#fff" cy="11" cx="10.4"/>
      <circle r="1.1" fill="#fff" cy="24" cx="10.3"/>
      <circle r="1.1" fill="#fff" cy="26" cx="15.8"/>
      <circle r="1.1" fill="#fff" cy="17" cx="7.1"/>
      <circle r="1.1" fill="#fff" cy="17" cx="24.5"/>
      <circle r="1.1" fill="#fff" cy="24" cx="21.2"/>
      <line x1="50%" y1="8" x2="50%" y2="18" stroke="#fff" stroke-width="1.6"/>
      <path stroke="#fff" stroke-width="1.6" d="M8 27l-2 3M24 27l2 3"/>
    </symbol>

    <symbol id="right-arrow">
      <path stroke="#000" stroke-width="2" d="M0 6h18"/>
      <path d="M24 6l-6.75 5.2V.8L24 6z" fill="#000"/>
    </symbol>

    <symbol id="icon-instagram" viewBox="0 0 16 16">
      <path d="M7.98.06c1.34 0 2.43.02 3.27.05a6 6 0 011.92.37 3.99 3.99 0 012.31 2.32 6 6 0 01.38 1.92 91.88 91.88 0 010 6.53 6 6 0 01-.38 1.92 3.99 3.99 0 01-2.3 2.31 6 6 0 01-1.93.38 91.88 91.88 0 01-6.53 0 6 6 0 01-1.92-.38 3.99 3.99 0 01-2.32-2.3 6 6 0 01-.37-1.93 91.73 91.73 0 010-6.53A6 6 0 01.48 2.8 3.99 3.99 0 012.8.48 6 6 0 014.72.11C5.56.08 6.65.06 7.98.06zm0 1.03c-1.38 0-2.51.02-3.39.05-.56.02-1.08.12-1.56.3-.75.31-1.28.84-1.6 1.6-.17.47-.27 1-.29 1.55a98.83 98.83 0 000 6.79c.02.56.12 1.08.3 1.56.31.75.84 1.28 1.6 1.6.47.17 1 .27 1.55.29a98.66 98.66 0 006.79 0 5.01 5.01 0 001.56-.3 2.85 2.85 0 001.6-1.6c.17-.47.27-1 .29-1.55a98.66 98.66 0 000-6.79 5.01 5.01 0 00-.3-1.56 2.85 2.85 0 00-1.6-1.6c-.47-.17-1-.27-1.55-.29-.88-.03-2.01-.05-3.4-.05zm0 10.07c.88 0 1.63-.31 2.25-.93.62-.62.93-1.37.93-2.25 0-.87-.31-1.62-.93-2.24a3.06 3.06 0 00-2.25-.93c-.87 0-1.62.31-2.24.93a3.06 3.06 0 00-.93 2.24c0 .88.31 1.63.93 2.25.62.62 1.37.93 2.24.93zm0-7.24c1.13 0 2.09.4 2.88 1.19.8.8 1.19 1.75 1.19 2.87 0 1.13-.4 2.09-1.2 2.88-.78.8-1.74 1.19-2.87 1.19-1.12 0-2.08-.4-2.87-1.2a3.92 3.92 0 01-1.19-2.87c0-1.12.4-2.08 1.19-2.87.8-.8 1.75-1.19 2.87-1.19zm5.2-.15a.95.95 0 01-.97.94.9.9 0 01-.67-.28.9.9 0 01-.27-.66.95.95 0 01.93-.97c.26 0 .49.1.68.29.2.19.3.42.3.68z" fill="#666"/>
    </symbol>

    <symbol id="icon-facebook" viewBox="0 0 22 22">
      <path d="M16.5 1.83h-2.75c-1.22 0-2.38.48-3.24 1.32a4.45 4.45 0 00-1.34 3.18v2.7H6.42v3.59h2.75v7.19h3.66v-7.2h2.75l.92-3.59h-3.67v-2.7c0-.23.1-.46.27-.63.17-.17.4-.26.65-.26h2.75v-3.6z" stroke="#666" stroke-width="1.1" stroke-linecap="round" stroke-linejoin="round" fill="none"/>
    </symbol>

    <symbol id="icon-vkontakte" viewBox="0 0 23 16">
      <path d="M.07 4c0-.63.42-.96 1.27-1.01L4.6 3c.22 0 .37.09.44.27.33.91.7 1.7 1.13 2.37.41.66.95 1.43 1.63 2.3a.3.3 0 00.28.16c.1 0 .18-.04.24-.13l.07-.2.02-3.17c0-.21-.06-.36-.19-.43A1.9 1.9 0 007.53 4c-.26-.04-.4-.17-.4-.4 0-.05.02-.09.03-.11.3-.8 1.18-1.19 2.63-1.19L11 2.29c.56 0 1.02.12 1.38.35.37.23.55.6.55 1.1v4.15c.1.06.2.09.28.09.22 0 .41-.11.57-.33 1.6-1.88 2.48-3.13 2.6-3.77a1.29 1.29 0 01.55-.57c.24-.13.44-.22.62-.27a.5.5 0 01.2-.03h3.39l.21.01c.3 0 .52.12.68.35.06.07.1.15.12.24a1.57 1.57 0 01.06.4v.13c-.1.5-.36 1.03-.78 1.6-.41.57-.94 1.18-1.59 1.84-.64.66-1.04 1.09-1.2 1.3-.13.14-.2.28-.2.4 0 .1.06.2.18.33l3.2 3.36c.17.2.26.41.26.64 0 .28-.13.52-.4.7-.26.18-.57.28-.94.3l-.37.03h-3.33a.8.8 0 00-.08 0 .8.8 0 01-.1.02c-.31 0-.61-.12-.89-.35a182 182 0 01-2.06-2.16 1.1 1.1 0 00-.3-.24 25.63 25.63 0 00-.44 1.63l-.07.31c-.14.43-.45.68-.92.77l-.3.02H9.74a5.92 5.92 0 01-3.62-1.4 14.5 14.5 0 01-3.25-3.59A32.9 32.9 0 01.18 4.52C.11 4.36.07 4.2.07 4zm13.15 4.73c-.3 0-.58-.07-.83-.21-.25-.14-.37-.33-.37-.58v-4.2c0-.25-.07-.42-.22-.52-.15-.1-.4-.16-.77-.16L9.8 3.1c-.63 0-1.1.09-1.43.27.65.26.97.67.97 1.24v3.22c-.03.3-.18.56-.44.76-.26.2-.55.3-.88.3-.43 0-.77-.17-1-.53a18.47 18.47 0 01-2.54-4.1l-.2-.47-2.9-.02c-.2 0-.3.01-.33.03-.02.02-.03.07-.03.16 0 .1.02.22.04.34l.46 1.03a23.46 23.46 0 004 6.25c1.44 1.53 2.85 2.29 4.23 2.29h2.2c.08 0 .15-.02.19-.07a.52.52 0 00.1-.24l.05-.18.42-1.61c.11-.22.22-.37.3-.44.16-.14.35-.2.57-.2.35 0 .71.17 1.08.53l1.86 1.97c.11.16.24.24.37.24h3.6c.45 0 .67-.1.67-.28a.31.31 0 00-.07-.18l-3.17-3.3a1.17 1.17 0 01-.38-.83c0-.3.12-.57.35-.84.2-.25.56-.65 1.11-1.22a28.2 28.2 0 001.43-1.59c.41-.5.68-.94.81-1.34l.07-.24a.24.24 0 01-.02-.12l-.02-.14h-3.44c-.22.07-.4.18-.53.33l-.13.35c-.36.84-1.32 2.14-2.86 3.9-.31.24-.67.36-1.08.36z" fill="#666"/>
    </symbol>

    <symbol id="text-logo" viewBox="0 0 128 24">
      <path d="M1.6 22.05A9.5 9.5 0 010 16.31V7.79a9.63 9.63 0 011.5-5.84C2.6.62 4.3 0 6.81 0c2.5 0 4.1.62 5.1 1.74a7.49 7.49 0 011.51 5.03v2.05h-4.9V6.46c.03-.7-.07-1.4-.3-2.05a1.46 1.46 0 00-.59-.63 1.41 1.41 0 00-.82-.19c-.7 0-1.2.2-1.4.72-.23.73-.33 1.49-.3 2.25v10.98c-.05.74.08 1.48.4 2.15.2.52.7.72 1.4.72s1.1-.2 1.3-.72c.23-.7.33-1.42.3-2.15v-2.46h4.91v2.05a7.98 7.98 0 01-1.5 5.13c-1 1.23-2.7 1.84-5.1 1.84-2.41-.1-4.22-.72-5.22-2.05zM19.33.3h5.7l4.22 23.4h-4.61l-.8-4.93h-3.3l-.8 4.92h-4.72L19.33.31zm4.1 15.4l-1.2-9.14-1.2 9.13h2.4zM32.75 4.2h-3.4V.3h11.91v3.8h-3.4v19.6h-5.1V4.2zM50.38.3h8.81v2.47h-5.7v7.7h4.6v2.35h-4.6v8.62h5.7v2.35h-8.91V.31h.1zM61.8.3H64l6.51 15.5V.3h2.6v23.4h-2l-6.6-16v16H61.8V.3zM76.12.3h8.81v2.47h-5.7v7.7h4.6v2.35h-4.6v8.62h5.7v2.35h-8.81V.31zM87.54.3h4.6a7.87 7.87 0 015.11 1.44c1.1.93 1.6 2.57 1.6 4.72 0 2.98-.9 4.82-2.8 5.44l3.2 11.69h-3.1l-3-10.97h-2.5v10.97h-3.21V.31h.1zm4.4 10.06a4.3 4.3 0 002.9-.82c.6-.51.91-1.54.91-3.08a6.77 6.77 0 00-.3-2.25 2.58 2.58 0 00-1.1-1.24 4.47 4.47 0 00-2.2-.4h-1.4v7.69h1.2v.1zM102.86 21.95a10.57 10.57 0 01-1.4-5.95V8.2c-.03-1.48.14-2.96.5-4.4a5.2 5.2 0 011.9-2.67c1.12-.68 2.41-1 3.7-.92 2.11 0 3.61.5 4.52 1.64a7.98 7.98 0 011.4 5.12v.82h-3v-.71c0-.86-.07-1.72-.2-2.57a2.06 2.06 0 00-.8-1.33 3.04 3.04 0 00-1.91-.51 2.96 2.96 0 00-2 .61 2.3 2.3 0 00-.8 1.64c-.14.92-.2 1.85-.2 2.77v8.72a9.53 9.53 0 00.6 3.9c.4.82 1.2 1.13 2.4 1.13a2.37 2.37 0 002.4-1.23c.53-1.3.77-2.7.7-4.1v-1.65h-2.9V12.1h5.8v11.6h-2l-.3-2.67c-.26.89-.8 1.67-1.55 2.2-.74.55-1.64.81-2.55.77a4.9 4.9 0 01-4.3-2.05zM119.99 15.49L115.08.4h3l3.51 11.28 3.4-11.28H128l-4.9 15.08v8.2h-3.01v-8.2h-.1z" fill="#111"/>
    </symbol>

    <symbol id="html-academy" viewBox="0 0 27 34">
      <path d="M13.64.02L13.5 0 0 1.4v24.61L13.5 34 27 26.01V1.41L13.64 0zm11.6 25L13.5 31.96 1.77 25.02v-10.1l11.68 6.93.02 1.25-8.02-4.75v1.23l8.04 4.8.02 1.3-8.05-4.76v1.22l8.04 4.81 8.12-4.83V16.9l3.62-2.15v10.26zm0-11.57L22 15.33l-1.48.88-7.06-4.19-.01 1.23 6.04 3.57-.06.03-.13.07-.86.5-4.98-2.95-.01 1.22 3.93 2.33-.93.61-.02.01-2.97-1.74-.01 1.23 1.94 1.13-1.98 1.19L1.8 13.58l11.63-6.96 11.8 6.83zm0-1.22L13.43 5.3 1.77 12.22V2.99L13.5 1.76 25.23 3v9.24z" fill="#666"/>
    </symbol>

    <symbol id="icon-email" viewBox="0 0 19 14" fill="none">
      <path stroke="#222" stroke-width="1.3" d="M1.18 6v8M18.18 6v8M.53 13.35h18M.53 1.35h18M17.88 3.18l-8.35 6.5-8.35-6.5V1.65h16.7v1.53z"/>
    </symbol>

    <symbol id="icon-phone" viewBox="0 0 20 20">
      <path d="M17.9 9.4H9.4v1.2h8.5l-2.1 2.1.9.9 3.1-3.1a.7.7 0 000-.9l-3.1-3.1-.9.9 2.1 2zM8.1 19.4v-6.2a.6.6 0 00-.6-.6H3.1a1.2 1.2 0 001.2 1.2h2.5v5H3.1a1.8 1.8 0 01-1.9-1.7v-14a1.8 1.8 0 011.7-1.8h3.9v5H4.4a1.2 1.2 0 00-1.2 1.2h4.4a.6.6 0 00.6-.6V.6a.9.9 0 00-.7-.6H3.1A3 3 0 000 2.9v13.9a2.9 2.9 0 002.9 3.1h4.6a.5.5 0 00.6-.5z" fill="#000"/>
    </symbol>

    <symbol id="icon-gift" viewBox="0 0 80 84" fill="none">
      <path d="M64.02 34.71H14.03a3.17 3.17 0 01-3.18-3.16v-9.47a3.17 3.17 0 013.18-3.16h49.98a3.17 3.17 0 013.19 3.16v9.47a3.17 3.17 0 01-3.18 3.16zM14.03 21.35c-.4 0-.74.33-.74.73v9.47c0 .41.33.74.74.74h49.98c.41 0 .75-.33.75-.74v-9.47c0-.4-.34-.73-.75-.73H14.03z" fill="#fff" />
      <path d="M57.04 67.15H21a6.11 6.11 0 01-6.13-6.09V33.5c0-.67.55-1.2 1.22-1.2.68 0 1.22.53 1.22 1.2v27.56A3.68 3.68 0 0021 64.73h36.04a3.68 3.68 0 003.7-3.67V33.5a1.22 1.22 0 012.44 0v27.56a6.11 6.11 0 01-6.14 6.09z" fill="#fff" />
      <path d="M39.02 67.15c-.67 0-1.22-.54-1.22-1.21V33.5c0-.67.55-1.2 1.22-1.2.68 0 1.22.53 1.22 1.2v32.44c0 .67-.54 1.2-1.22 1.2zM23.81 21.34a7.8 7.8 0 01-3.17-10.6A7.9 7.9 0 0131.3 7.6c5.82 3.13 8.96 11.86 9.09 12.23l-2.3.8c-.03-.08-2.96-8.22-7.95-10.9a5.46 5.46 0 00-7.36 2.17 5.39 5.39 0 002.2 7.32l-1.17 2.13z" fill="#fff" />
      <path d="M54.23 21.34l-1.16-2.13a5.38 5.38 0 00-1.03-9.92 5.43 5.43 0 00-4.14.43c-4.98 2.68-7.91 10.82-7.94 10.9l-2.3-.8c.13-.37 3.27-9.1 9.08-12.23a7.86 7.86 0 0111.29 9.1c-.6 2-1.95 3.66-3.8 4.65zM61.95 50.93H16.09c-.67 0-1.22-.54-1.22-1.2 0-.68.55-1.22 1.22-1.22h45.86c.67 0 1.22.54 1.22 1.21 0 .67-.55 1.21-1.22 1.21z" fill="#fff" />
    </symbol>
  </svg>
